# AST/ASF file generated using VICON BodyLanguage
# -----------------------------------------------
:version 1.10
:name VICON
:units
  mass 1.0
  length 0.45
  angle deg
:documentation
   .ast/.asf automatically generated from VICON data using
   VICON BodyBuilder and BodyLanguage model FoxedUp or BRILLIANT.MOD
:root
   order TX TY TZ RX RY RZ
   axis XYZ
   position 0 0 0  
   orientation 0 0 0 
:bonedata
  begin
     id 1 
     name lhipjoint
     direction 0.522423 -0.726805 0.445902 
     length 2.25074 
     axis 0 0 0  XYZ
  end
  begin
     id 2 
     name lfemur
     direction 0.34202 -0.939693 0  
     length 6.54609  
     axis 0 0 20  XYZ
    dof rx ry rz
    limits (-160.0 20.0)
           (-70.0 70.0)
           (-60.0 70.0)
  end
  begin
     id 3 
     name ltibia
     direction 0.34202 -0.939693 0   
     length 7.7528   
     axis 0 0 20   XYZ
    dof rx
    limits (-10.0 170.0)
  end
  begin
     id 4 
     name lfoot
     direction 0.143696 -0.394801 0.90746   
     length 1.73269   
     axis -90 7.62852e-016 20   XYZ
    dof rx rz
    limits (-45.0 90.0)
           (-70.0 20.0)
  end
  begin
     id 5 
     name ltoes
     direction 1.53633e-011 -4.21912e-011 1   
     length 0.858383   
     axis -90 7.62852e-016 20   XYZ
    dof rx
    limits (-90.0 20.0)
  end
  begin
     id 6 
     name rhipjoint
     direction -0.515943 -0.73016 0.447961   
     length 2.2404  
     axis 0 0 0  XYZ 
  end
  begin
     id 7 
     name rfemur
     direction -0.34202 -0.939693 0   
     length 6.84377   
     axis 0 0 -20   XYZ
    dof rx ry rz
    limits (-160.0 20.0)
           (-70.0 70.0)
           (-70.0 60.0)
  end
  begin
     id 8 
     name rtibia
     direction -0.34202 -0.939693 0   
     length 7.57596   
     axis 0 0 -20   XYZ
    dof rx
    limits (-10.0 170.0)
 end
 begin
     id 9 
     name rfoot
     direction -0.0999372 -0.274575 0.956358   
     length 1.78783  
     axis -90 -7.62852e-016 -20   XYZ
    dof rx rz
    limits (-45.0 90.0)
           (-20.0 70.0)
  end
  begin
     id 10 
     name rtoes
     direction -1.53535e-011 -4.21895e-011 1   
     length 0.898614   
     axis -90 -7.62852e-016 -20   XYZ
    dof rx
    limits (-90.0 20.0)
  end
  begin
     id 11 
     name lowerback
     direction -0.011775 0.996164 -0.0867116   
     length 1.91499   
     axis 0 0 0   XYZ
    dof rx ry rz
    limits (-20.0 45.0)
           (-30.0 30.0)
           (-30.0 30.0)
  end
  begin
     id 12 
     name upperback
     direction -0.00189771 0.999673 -0.0254833   
     length 1.92213   
     axis 0 0 0   XYZ
    dof rx ry rz
    limits (-20.0 45.0)
           (-30.0 30.0)
           (-30.0 30.0)
  end
  begin
     id 13 
     name thorax
     direction 0.00335995 0.999878 0.0152401   
     length 1.93138   
     axis 0 0 0   XYZ
    dof rx ry rz
    limits (-20.0 45.0)
           (-30.0 30.0)
           (-30.0 30.0)
  end
  begin
     id 14 
     name lowerneck
     direction 0.00233191 0.998509 0.0545404   
     length 1.59408   
     axis 0 0 0   XYZ
    dof rx ry rz
    limits (-20.0 45.0)
           (-30.0 30.0)
           (-30.0 30.0)
  end
  begin
     id 15 
     name upperneck
     direction 0.07881 0.9956 -0.0506934   
     length 1.59344   
     axis 0 0 0   XYZ
    dof rx ry rz
    limits (-20.0 45.0)
           (-30.0 30.0)
           (-30.0 30.0)
  end
  begin
     id 16
     name head
     direction 0.0261681 0.999378 -0.0236299  
     length 1.60935  
     axis 0 0 0   XYZ
    dof rx ry rz
    limits (-20.0 45.0)
           (-30.0 30.0)
           (-30.0 30.0)
  end
  begin
     id 17 
     name lclavicle
     direction 0.96643 0.252035 0.0499195  
     length 3.82153  
     axis 0 0 0   XYZ
    dof ry rz
    limits (-20.0 10.0)
           (0.0 20.0)
  end
  begin
     id 18 
     name lhumerus
     direction 1 -4.48967e-011 -2.01614e-018   
     length 4.87796   
     axis 180 -30 -90   XYZ
    dof rx ry rz
    limits (-60.0 90.0)
           (-90.0 90.0)
           (-90.0 90.0)
  end
  begin
     id 19
     name lradius
     direction 1 -4.48958e-011 3.1409e-027   
     length 3.23169   
     axis 180 -30 -90   XYZ
    dof rx
    limits (-10.0 170.0)
  end
  begin
     id 20
     name lwrist
     direction 1 -4.48924e-011 1.0365e-027   
     length 1.61584   
     axis -2.56395e-016 90 90   XYZ
    dof ry
    limits (-180.0 0.0)
 end
  begin
     id 21 
     name lhand
     direction 1 -4.49055e-011 2.09488e-027   
     length 0.731324   
     axis -1.32723e-015 90 90   XYZ
    dof rx rz
    limits (-90.0 90.0)
           (-45.0 45.0)
  end
  begin
     id 22 
     name lfingers
     direction 1 -4.48935e-011 4.14981e-027   
     length 0.589612   
     axis -2.6545e-015 90 90   XYZ
    dof rx
    limits (0.0 90.0)
  end
  begin
     id 23
     name lthumb
     direction 0.707107 -6.35097e-011 0.707107   
     length 0.846569   
     axis -90 45 5.05613e-014   XYZ
    dof rx rz
    limits (-45.0 45.0)
           (-45.0 45.0)
  end
  begin
     id 24 
     name rclavicle
     direction -0.979337 0.201016 0.0221522   
     length 3.73827  
     axis 0 0 0   XYZ 
    dof ry rz
    limits (-10.0 20.0)
           (-20.0 0.0)
  end
  begin
     id 25 
     name rhumerus
     direction -1 -4.48971e-011 1.65907e-027  
     length 4.9143   
     axis 180 30 90   XYZ
    dof rx ry rz
    limits (-90.0 60.0)
           (-90.0 90.0)
           (-90.0 90.0)
  end
  begin
     id 26 
     name rradius
     direction -1 -4.4894e-011 2.17871e-028   
     length 3.29093   
     axis 180 30 90   XYZ
    dof rx
    limits (-10.0 170.0)
  end
  begin
     id 27 
     name rwrist
     direction -1 -4.48971e-011 1.04038e-027   
     length 1.64546   
     axis -2.56395e-016 -90 -90   XYZ
    dof ry
    limits (-180.0 0.0)
  end
  begin
     id 28
     name rhand
     direction -1 -4.49017e-011 2.08843e-027   
     length 0.54512   
     axis -1.32723e-015 -90 -90   XYZ
    dof rx rz
    limits (-90.0 90.0)
           (-45.0 45.0)
  end
  begin
     id 29
     name rfingers
     direction -1 -4.48918e-011 4.1439e-027   
     length 0.43949   
     axis -2.6545e-015 -90 -90   XYZ
    dof rx
    limits (0.0 90.0)
  end
  begin
     id 30
     name rthumb
     direction -0.707107 -6.35065e-011 0.707107   
     length 0.631022   
     axis -90 -45 -5.05613e-014   XYZ
    dof rx rz
    limits (-45.0 45.0)
           (-45.0 45.0)
  end
:hierarchy
  begin
    root lhipjoint rhipjoint lowerback
    lhipjoint lfemur
    lfemur ltibia
    ltibia lfoot
    lfoot ltoes
    rhipjoint rfemur
    rfemur rtibia
    rtibia rfoot
    rfoot rtoes
    lowerback upperback
    upperback thorax
    thorax lowerneck lclavicle rclavicle
    lowerneck upperneck
    upperneck head
    lclavicle lhumerus
    lhumerus lradius
    lradius lwrist
    lwrist lhand lthumb
    lhand lfingers
    rclavicle rhumerus
    rhumerus rradius
    rradius rwrist
    rwrist rhand rthumb
    rhand rfingers
  end

#!OML:ASF H:\BreakDance\Project 1\Capture day 1\Session 1\Male.ASF
:FULLY-SPECIFIED
:DEGREES
226
root 13.7388 16.2896 2.8371 5.56768 -36.0586 6.70938
lowerback 4.22965 -4.66601 -7.49338
upperback 3.86 -6.4596 1.33662
thorax 2.64256 -3.47049 5.63329
lowerneck 4.00009 -10.2433 -9.60454
upperneck 2.41815 -14.3229 12.3953
head 1.66228 -7.24482 5.02077
rclavicle -7.78242e-014 2.28602e-014
rhumerus 20.5153 53.411 -70.1533
rradius 62.5388
rwrist 0.495248
rhand -14.2395 -13.7583
rfingers 7.12502
rthumb 11.8982 -43.4002
lclavicle -7.78242e-014 2.28602e-014
lhumerus 8.4736 -42.0503 99.7468
lradius 79.4757
lwrist -6.38202
lhand -14.221 -36.2048
lfingers 7.12502
lthumb 11.916 -6.56394
rfemur -47.2344 -3.54895 23.1971
rtibia 52.7888
rfoot 15.7401 15.6837
rtoes 50.4121
lfemur -22.4823 1.36336 -21.9703
ltibia 52.523
lfoot -23.6697 7.26923
ltoes -30.4208
227
root 13.7841 16.2048 2.84124 5.01775 -33.0185 7.23727
lowerback 3.95336 -5.07697 -7.56806
upperback 3.74914 -6.98738 1.28804
thorax 2.76678 -3.73456 5.59156
lowerneck 4.1865 -10.7207 -10.0331
upperneck 2.30519 -14.9824 12.3714
head 1.70342 -7.58239 5.05463
rclavicle 9.8299e-014 2.72335e-014
rhumerus 20.5665 53.0531 -69.6407
rradius 63.1761
rwrist 0.463717
rhand -14.1325 -13.3606
rfingers 7.12502
rthumb 12.0013 -42.9965
lclavicle 9.8299e-014 2.72335e-014
lhumerus 9.44985 -42.947 99.7801
lradius 78.9474
lwrist -6.49272
lhand -14.1301 -36.1801
lfingers 7.12502
lthumb 12.0037 -6.54429
rfemur -46.8558 -3.45027 22.5625
rtibia 53.2091
rfoot 13.0731 16.5609
rtoes 52.5934
lfemur -20.9708 0.504299 -21.0694
ltibia 53.5468
lfoot -23.3039 6.67304
ltoes -30.2359
228
root 13.8232 16.115 2.84607 4.48798 -30.066 7.64856
lowerback 3.67768 -5.43151 -7.63596
upperback 3.63768 -7.44049 1.25699
thorax 2.88005 -3.96118 5.5614
lowerneck 4.50354 -11.1922 -10.5669
upperneck 2.12717 -15.6481 12.4031
head 1.72017 -7.92855 5.12752
rclavicle 3.51849e-014 -2.5842e-014
rhumerus 20.2379 52.6263 -69.4485
rradius 63.7675
rwrist 0.598913
rhand -14.1404 -13.1719
rfingers 7.12502
rthumb 11.9937 -42.8082
lclavicle 3.51849e-014 -2.5842e-014
lhumerus 10.3227 -43.8683 99.8207
lradius 78.4163
lwrist -6.5765
lhand -14.0936 -36.1185
lfingers 7.12502
lthumb 12.0388 -6.48476
rfemur -46.3814 -3.17015 21.7996
rtibia 53.7502
rfoot 9.12722 16.9245
rtoes 53.8479
lfemur -19.4612 -0.361692 -19.9789
ltibia 54.5254
lfoot -22.858 6.19023
ltoes -30.0182
229
root 13.8573 16.0198 2.85028 3.95549 -27.2346 7.96632
lowerback 3.45183 -5.7345 -7.72645
upperback 3.52104 -7.83027 1.25876
thorax 2.95854 -4.15631 5.5816
lowerneck 4.88044 -11.6382 -11.2379
upperneck 1.94579 -16.2964 12.4662
head 1.74155 -8.26848 5.23148
rclavicle 1.29409e-013 -2.5842e-014
rhumerus 19.6395 52.1765 -69.481
rradius 64.3064
rwrist 0.786443
rhand -14.1575 -13.1046
rfingers 7.12502
rthumb 11.9772 -42.742
lclavicle 1.29409e-013 -2.5842e-014
lhumerus 11.1503 -44.7491 99.8618
lradius 77.8562
lwrist -6.63727
lhand -14.1259 -36.0135
lfingers 7.12502
lthumb 12.0077 -6.37797
rfemur -45.7961 -2.70465 20.9022
rtibia 54.3824
rfoot 4.48088 16.5048
rtoes 53.9599
lfemur -17.9846 -1.16971 -18.72
ltibia 55.4785
lfoot -22.3728 5.88689
ltoes -29.8112
230
root 13.8887 15.9191 2.85278 3.42252 -24.5545 8.22739
lowerback 3.29854 -5.99771 -7.81906
upperback 3.40447 -8.17314 1.26909
thorax 2.99168 -4.32684 5.61926
lowerneck 5.20949 -12.0329 -12.0788
upperneck 1.82126 -16.8948 12.6259
head 1.8084 -8.58262 5.38178
rclavicle 1.03567e-013 -9.54166e-015
rhumerus 18.9085 51.7305 -69.6769
rradius 64.7664
rwrist 0.994756
rhand -14.1895 -13.1249
rfingers 7.12502
rthumb 11.9464 -42.7641
lclavicle 1.03567e-013 -9.54166e-015
lhumerus 11.987 -45.5489 99.8237
lradius 77.2736
lwrist -6.65731
lhand -14.2218 -35.897
lfingers 7.12502
lthumb 11.9152 -6.25605
rfemur -45.1456 -2.0754 19.876
rtibia 55.0719
rfoot -0.15979 15.4305
rtoes 52.9938
lfemur -16.6003 -1.86956 -17.3319
ltibia 56.4215
lfoot -21.8636 5.75229
ltoes -29.6516
